<?xml version="1.0" encoding="UTF-8"?>
<svg version="1.1" xmlns="http://www.w3.org/2000/svg" width="288" height="175">
<path d="M0 0 C95.04 0 190.08 0 288 0 C288 57.75 288 115.5 288 175 C192.96 175 97.92 175 0 175 C0 117.25 0 59.5 0 0 Z " fill="#0EAAFD" transform="translate(0,0)"/>
<path d="M0 0 C45.87 0 91.74 0 139 0 C139 57.75 139 115.5 139 175 C93.13 175 47.26 175 0 175 C0 117.25 0 59.5 0 0 Z " fill="#FA9315" transform="translate(149,0)"/>
<path d="M0 0 C1.18916016 -0.01160156 2.37832031 -0.02320312 3.60351562 -0.03515625 C11.18472114 -0.01017699 17.75546103 0.961811 24.9375 3.375 C26.07445313 3.74882812 27.21140625 4.12265625 28.3828125 4.5078125 C29.26710938 4.83523437 30.15140625 5.16265625 31.0625 5.5 C32.42761719 5.99886719 32.42761719 5.99886719 33.8203125 6.5078125 C35.9375 7.375 35.9375 7.375 36.9375 8.375 C37.02435603 9.93672745 37.04452219 11.50229344 37.03515625 13.06640625 C37.03032227 14.48276367 37.03032227 14.48276367 37.02539062 15.92773438 C37.01282227 17.41756836 37.01282227 17.41756836 37 18.9375 C36.99548828 19.93458984 36.99097656 20.93167969 36.98632812 21.95898438 C36.97450007 24.43104849 36.95801849 26.90299518 36.9375 29.375 C31.52870794 28.22900452 26.22299313 26.95175082 20.9375 25.3125 C19.82375 24.97089844 18.71 24.62929688 17.5625 24.27734375 C14.9375 23.375 14.9375 23.375 13.9375 22.375 C12.23186222 22.21759395 10.52022756 22.12406608 8.80859375 22.05859375 C7.25688477 21.99575195 7.25688477 21.99575195 5.67382812 21.93164062 C4.58521484 21.89232422 3.49660156 21.85300781 2.375 21.8125 C1.28251953 21.76931641 0.19003906 21.72613281 -0.93554688 21.68164062 C-3.64439564 21.57517932 -6.35333992 21.47316484 -9.0625 21.375 C-9.0625 22.035 -9.0625 22.695 -9.0625 23.375 C-12.93934087 24.56787411 -15.97871923 25.375 -20.0625 25.375 C-20.0625 26.365 -20.0625 27.355 -20.0625 28.375 C-20.73796875 28.65472656 -21.4134375 28.93445313 -22.109375 29.22265625 C-28.35900703 32.03137816 -31.39916458 34.00615443 -34.0625 40.375 C-34.82290572 42.64485894 -34.82290572 42.64485894 -35.0625 44.375 C-35.7225 44.375 -36.3825 44.375 -37.0625 44.375 C-37.0625 57.575 -37.0625 70.775 -37.0625 84.375 C-36.0725 84.375 -35.0825 84.375 -34.0625 84.375 C-30.0625 89.63214286 -30.0625 89.63214286 -30.0625 92.375 C-29.4025 92.375 -28.7425 92.375 -28.0625 92.375 C-27.47855469 93.52742188 -27.47855469 93.52742188 -26.8828125 94.703125 C-24.41241281 98.32920524 -22.07206528 98.81756047 -17.9375 100.125 C-11.12242647 102.31507353 -11.12242647 102.31507353 -10.0625 103.375 C-0.9159477 103.9058267 7.40712087 104.02547266 15.9375 100.375 C17.2575 100.045 18.5775 99.715 19.9375 99.375 C19.9375 93.105 19.9375 86.835 19.9375 80.375 C12.3475 80.375 4.7575 80.375 -3.0625 80.375 C-3.0625 73.775 -3.0625 67.175 -3.0625 60.375 C3.61270882 60.35035704 10.2878914 60.33216733 16.96313477 60.32006836 C19.23592591 60.31502675 21.5087138 60.30819363 23.78149414 60.29956055 C27.04053551 60.28748739 30.29953417 60.28177013 33.55859375 60.27734375 C34.58150009 60.27218246 35.60440643 60.26702118 36.65830994 60.26170349 C37.59920975 60.26162796 38.54010956 60.26155243 39.50952148 60.26147461 C40.34225082 60.259254 41.17498016 60.25703339 42.03294373 60.25474548 C43.9375 60.375 43.9375 60.375 44.9375 61.375 C45.03069449 62.9098297 45.054958 64.44892082 45.05102539 65.98657227 C45.05091209 67.45798424 45.05091209 67.45798424 45.05079651 68.9591217 C45.04563522 70.0257756 45.04047394 71.0924295 45.03515625 72.19140625 C45.0337413 73.2775975 45.03232635 74.36378876 45.03086853 75.4828949 C45.02525048 78.96779075 45.01269492 82.45262342 45 85.9375 C44.99498733 88.29361887 44.99042402 90.64973874 44.98632812 93.00585938 C44.97527519 98.79559464 44.95851951 104.58529281 44.9375 110.375 C42.7527247 111.65071484 40.56488381 112.92060673 38.375 114.1875 C37.76591797 114.54392578 37.15683594 114.90035156 36.52929688 115.26757812 C25.93936353 121.375 25.93936353 121.375 19.9375 121.375 C19.9375 122.365 19.9375 123.355 19.9375 124.375 C12.41552506 126.19857267 5.22597259 126.74059529 -2.5 126.75 C-4.08264648 126.78673828 -4.08264648 126.78673828 -5.69726562 126.82421875 C-13.27842195 126.85221071 -19.10438672 125.26369531 -26.0625 122.375 C-28.38252673 121.64150334 -30.71312932 121.01128789 -33.0625 120.375 C-34.5475 119.88 -34.5475 119.88 -36.0625 119.375 C-36.0625 118.715 -36.0625 118.055 -36.0625 117.375 C-37.1453125 117.00375 -37.1453125 117.00375 -38.25 116.625 C-47.44047662 112.54034372 -53.63684883 104.17698982 -57.41796875 95.1328125 C-61.70001728 83.65541556 -63.41215465 72.95596425 -63.375 60.6875 C-63.39111328 59.61177734 -63.40722656 58.53605469 -63.42382812 57.42773438 C-63.42778601 50.96450563 -62.64633412 46.28851726 -60.0625 40.375 C-59.71846692 38.04322025 -59.38300798 35.71012959 -59.0625 33.375 C-58.4025 32.385 -57.7425 31.395 -57.0625 30.375 C-56.4025 30.375 -55.7425 30.375 -55.0625 30.375 C-54.7325 29.055 -54.4025 27.735 -54.0625 26.375 C-53.4025 26.375 -52.7425 26.375 -52.0625 26.375 C-51.794375 25.83875 -51.52625 25.3025 -51.25 24.75 C-50.858125 23.96625 -50.46625 23.1825 -50.0625 22.375 C-49.65 21.405625 -49.2375 20.43625 -48.8125 19.4375 C-46.24976333 14.95271082 -43.30773843 12.00952391 -38.1875 10.5625 C-37.48625 10.500625 -36.785 10.43875 -36.0625 10.375 C-36.0625 9.715 -36.0625 9.055 -36.0625 8.375 C-34.65516179 7.58726423 -33.23574589 6.82111691 -31.8125 6.0625 C-31.02359375 5.63324219 -30.2346875 5.20398437 -29.421875 4.76171875 C-19.7369049 0.76385318 -10.39721512 -0.1017672 0 0 Z " fill="#FAFDFD" transform="translate(78.0625,27.625)"/>
<path d="M0 0 C0 7.26 0 14.52 0 22 C-5.06409912 21.27655727 -9.15340549 20.46643742 -13.9375 18.9375 C-15.08089844 18.57527344 -16.22429687 18.21304688 -17.40234375 17.83984375 C-18.25957031 17.56269531 -19.11679688 17.28554688 -20 17 C-20 16.34 -20 15.68 -20 15 C-23.37492629 14.94154804 -26.74972087 14.90625258 -30.125 14.875 C-31.07632813 14.85824219 -32.02765625 14.84148438 -33.0078125 14.82421875 C-39.50814767 14.77907753 -44.45988448 15.08080161 -49.8125 19.125 C-52.69094412 22.90809799 -52.76134614 25.30647415 -53 30 C-52.01 30 -51.02 30 -50 30 C-48.98133771 31.65532623 -47.98189187 33.32260138 -47 35 C-46.01 35.33 -45.02 35.66 -44 36 C-44 36.66 -44 37.32 -44 38 C-43.21625 38.0825 -42.4325 38.165 -41.625 38.25 C-36.822355 39.24365069 -32.50190511 41.08713518 -28 43 C-28 43.99 -28 44.98 -28 46 C-27.14341797 46.09474609 -27.14341797 46.09474609 -26.26953125 46.19140625 C-17.35601157 47.53764531 -7.76706663 51.34140156 -1.6875 58.25 C0 61 0 61 0 64 C0.66 64 1.32 64 2 64 C8.08818932 73.67587231 7.51257653 83.0080811 7 94 C6.34 94 5.68 94 5 94 C4.9071875 95.794375 4.9071875 95.794375 4.8125 97.625 C4.23148196 102.4354876 2.38695459 104.61304541 -1 108 C-1.99 108.495 -1.99 108.495 -3 109 C-3.495 110.485 -3.495 110.485 -4 112 C-7.0625 113.1875 -7.0625 113.1875 -10 114 C-10 114.66 -10 115.32 -10 116 C-13.61973402 117.31626692 -16.09567131 118 -20 118 C-20 118.66 -20 119.32 -20 120 C-30.56 120 -41.12 120 -52 120 C-52 119.34 -52 118.68 -52 118 C-52.763125 118.061875 -53.52625 118.12375 -54.3125 118.1875 C-61.73114699 117.81028066 -73.51438727 115.48561273 -79 110 C-79.08700342 108.36527118 -79.10701063 106.72685945 -79.09765625 105.08984375 C-79.09443359 104.10048828 -79.09121094 103.11113281 -79.08789062 102.09179688 C-79.07951172 101.05087891 -79.07113281 100.00996094 -79.0625 98.9375 C-79.05798828 97.89271484 -79.05347656 96.84792969 -79.04882812 95.77148438 C-79.03699913 93.1809334 -79.02051689 90.59049441 -79 88 C-77.35 88 -75.7 88 -74 88 C-74 88.66 -74 89.32 -74 90 C-73.113125 90.28875 -72.22625 90.5775 -71.3125 90.875 C-68.49617576 91.83148748 -65.74916844 92.86798946 -63 94 C-63 94.66 -63 95.32 -63 96 C-62.00033203 96.07347656 -62.00033203 96.07347656 -60.98046875 96.1484375 C-56.11938839 96.5427629 -51.40250496 97.07041134 -46.625 98.0625 C-40.41570882 99.2756032 -34.30314354 99.18037613 -28 99 C-28 98.34 -28 97.68 -28 97 C-22.375 94 -22.375 94 -19 94 C-19 88.72 -19 83.44 -19 78 C-19.66 78 -20.32 78 -21 78 C-22.68762851 76.3545622 -24.3540349 74.68711423 -26 73 C-26.99 72.505 -26.99 72.505 -28 72 C-28 71.34 -28 70.68 -28 70 C-28.78375 69.9175 -29.5675 69.835 -30.375 69.75 C-34.30797789 68.93628044 -37.67110648 67.57655484 -41.36328125 66.03125 C-43.87021169 65.05076165 -46.33909041 64.31901083 -48.9375 63.625 C-54.76022798 61.96797566 -59.80410906 59.05233897 -65 56 C-65 55.34 -65 54.68 -65 54 C-65.99 53.67 -66.98 53.34 -68 53 C-69.5 51.14453125 -69.5 51.14453125 -71 48.8125 C-71.495 48.05582031 -71.99 47.29914063 -72.5 46.51953125 C-73.2425 45.27236328 -73.2425 45.27236328 -74 44 C-74.55300781 43.11441406 -75.10601562 42.22882813 -75.67578125 41.31640625 C-77.46788547 36.82821605 -77.32783541 32.90360054 -77.1875 28.125 C-77.17396484 27.24585938 -77.16042969 26.36671875 -77.14648438 25.4609375 C-77.11136623 23.30702448 -77.05756694 21.15342996 -77 19 C-76.34 19 -75.68 19 -75 19 C-74.8453125 17.6696875 -74.8453125 17.6696875 -74.6875 16.3125 C-73.98284093 12.9173245 -73.0445434 10.78057902 -71 8 C-70.34 8 -69.68 8 -69 8 C-68.73832031 7.40445313 -68.47664062 6.80890625 -68.20703125 6.1953125 C-66.93192773 3.87619218 -65.69686616 2.57694651 -63.6875 0.875 C-63.11386719 0.37742187 -62.54023438 -0.12015625 -61.94921875 -0.6328125 C-45.98504855 -11.83012627 -16.7321764 -6.27456615 0 0 Z " fill="#FDFCF7" transform="translate(260,34)"/>
<path d="M0 0 C1.32 0 2.64 0 4 0 C4 57.75 4 115.5 4 175 C2.68 175 1.36 175 0 175 C0 117.25 0 59.5 0 0 Z " fill="#4F97A4" transform="translate(145,0)"/>
<path d="M0 0 C6.67520882 -0.02464296 13.3503914 -0.04283267 20.02563477 -0.05493164 C22.29842591 -0.05997325 24.5712138 -0.06680637 26.84399414 -0.07543945 C30.10303551 -0.08751261 33.36203417 -0.09322987 36.62109375 -0.09765625 C37.64400009 -0.10281754 38.66690643 -0.10797882 39.72080994 -0.11329651 C40.66170975 -0.11337204 41.60260956 -0.11344757 42.57202148 -0.11352539 C43.40475082 -0.115746 44.23748016 -0.11796661 45.09544373 -0.12025452 C47 0 47 0 48 1 C48.09319449 2.5348297 48.117458 4.07392082 48.11352539 5.61157227 C48.11344986 6.59251358 48.11337433 7.5734549 48.11329651 8.5841217 C48.10813522 9.6507756 48.10297394 10.7174295 48.09765625 11.81640625 C48.0962413 12.9025975 48.09482635 13.98878876 48.09336853 15.1078949 C48.08775048 18.59279075 48.07519492 22.07762342 48.0625 25.5625 C48.05748733 27.91861887 48.05292402 30.27473874 48.04882812 32.63085938 C48.03777519 38.42059464 48.02101951 44.21029281 48 50 C47.34 50 46.68 50 46 50 C45.67 34.49 45.34 18.98 45 3 C31.14 2.67 17.28 2.34 3 2 C3 6.62 3 11.24 3 16 C5.25650391 16.09087891 5.25650391 16.09087891 7.55859375 16.18359375 C9.51823989 16.26798043 11.47787476 16.35262935 13.4375 16.4375 C14.92733398 16.49647461 14.92733398 16.49647461 16.44726562 16.55664062 C17.39150391 16.59853516 18.33574219 16.64042969 19.30859375 16.68359375 C20.18314209 16.72025146 21.05769043 16.75690918 21.95874023 16.79467773 C24 17 24 17 25 18 C25.25208722 21.80588144 25.18522344 25.62425456 25.1875 29.4375 C25.19974609 30.51322266 25.21199219 31.58894531 25.22460938 32.69726562 C25.22750977 34.23737305 25.22750977 34.23737305 25.23046875 35.80859375 C25.23457764 36.75532959 25.23868652 37.70206543 25.24291992 38.67749023 C25 41 25 41 23 43 C19.9609375 43.4140625 19.9609375 43.4140625 16.375 43.625 C15.18648437 43.69976562 13.99796875 43.77453125 12.7734375 43.8515625 C11.85820313 43.90054688 10.94296875 43.94953125 10 44 C14.10721149 41.26185901 18.23295543 40.19176114 23 39 C23 32.73 23 26.46 23 20 C15.41 20 7.82 20 0 20 C0 13.4 0 6.8 0 0 Z " fill="#ABE6FB" transform="translate(75,88)"/>
<path d="M0 0 C4.98189569 6.11414472 5.27281819 11.18849279 5.125 18.8125 C5.11597656 19.69615234 5.10695313 20.57980469 5.09765625 21.49023438 C5.07419637 23.66027359 5.03832865 25.83017247 5 28 C4.34 28 3.68 28 3 28 C2.9071875 29.794375 2.9071875 29.794375 2.8125 31.625 C2.23148196 36.4354876 0.38695459 38.61304541 -3 42 C-3.99 42.495 -3.99 42.495 -5 43 C-5.33 43.99 -5.66 44.98 -6 46 C-9.0625 47.1875 -9.0625 47.1875 -12 48 C-12 48.66 -12 49.32 -12 50 C-15.61973402 51.31626692 -18.09567131 52 -22 52 C-22 52.66 -22 53.32 -22 54 C-32.56 54 -43.12 54 -54 54 C-54 53.34 -54 52.68 -54 52 C-54.94875 52.04125 -55.8975 52.0825 -56.875 52.125 C-60 52 -60 52 -62 50 C-58.04 50 -54.08 50 -50 50 C-50 50.66 -50 51.32 -50 52 C-31.58889984 52.60318048 -31.58889984 52.60318048 -15.28515625 46.3984375 C-14.86105469 45.93695313 -14.43695313 45.47546875 -14 45 C-13.34 45 -12.68 45 -12 45 C-12 44.34 -12 43.68 -12 43 C-9.36 42.34 -6.72 41.68 -4 41 C-4.0825 40.0925 -4.165 39.185 -4.25 38.25 C-4 35 -4 35 -2.125 33.3125 C1.46153363 29.40950752 1.75472933 25.18970433 2 20 C1.67652425 13.30378673 0.86131618 6.64541567 0 0 Z " fill="#F8D5A1" transform="translate(262,100)"/>
<path d="M0 0 C16.83 0 33.66 0 51 0 C54.375 10.125 54.375 10.125 54.34057617 13.87719727 C54.34023628 15.13748497 54.34023628 15.13748497 54.33988953 16.42323303 C54.32440567 17.29548019 54.30892181 18.16772736 54.29296875 19.06640625 C54.28872391 19.98590561 54.28447906 20.90540497 54.28010559 21.85276794 C54.26346776 24.75632459 54.22584467 27.65915726 54.1875 30.5625 C54.17243386 32.54491177 54.15874886 34.52733454 54.14648438 36.50976562 C54.11361326 41.34011778 54.06193611 46.16993664 54 51 C52.35 51 50.7 51 49 51 C48.67 34.83 48.34 18.66 48 2 C32.49 1.67 16.98 1.34 1 1 C1 7.6 1 14.2 1 21 C0.67 21 0.34 21 0 21 C0 14.07 0 7.14 0 0 Z " fill="#2DB3F8" transform="translate(74,87)"/>
<path d="M0 0 C0.69867188 -0.00386719 1.39734375 -0.00773437 2.1171875 -0.01171875 C5.87074298 -0.00463657 9.35151145 0.22712977 13 1.125 C13 1.785 13 2.445 13 3.125 C14.98567708 3.3203125 16.97135417 3.515625 18.95703125 3.7109375 C21 4.125 21 4.125 24 6.125 C22.00045254 6.16754356 19.99958364 6.16580783 18 6.125 C17.505 5.63 17.505 5.63 17 5.125 C8.70241768 3.65820158 0.43105556 2.76792 -8 3.125 C-8.33 4.115 -8.66 5.105 -9 6.125 C-9.66 6.125 -10.32 6.125 -11 6.125 C-11 10.085 -11 14.045 -11 18.125 C-9.68 17.465 -8.36 16.805 -7 16.125 C-6.34 16.455 -5.68 16.785 -5 17.125 C-5.66 19.105 -6.32 21.085 -7 23.125 C-5.68 23.125 -4.36 23.125 -3 23.125 C-3 23.785 -3 24.445 -3 25.125 C-2.34 25.455 -1.68 25.785 -1 26.125 C-4.37705625 25.58774105 -7.696686 25.01435377 -11 24.125 C-11 23.465 -11 22.805 -11 22.125 C-11.61875 22.00125 -12.2375 21.8775 -12.875 21.75 C-15 21.125 -15 21.125 -17 19.125 C-17 18.135 -17 17.145 -17 16.125 C-17.99 16.125 -18.98 16.125 -20 16.125 C-20.48970976 8.901781 -20.48970976 8.901781 -18.1875 5.25 C-12.65781186 -0.12169705 -7.37127282 -0.0408004 0 0 Z " fill="#F59520" transform="translate(227,47.875)"/>
<path d="M0 0 C0.79921875 0.09925781 1.5984375 0.19851562 2.421875 0.30078125 C4.86677987 0.65065557 7.27812232 1.08094697 9.6875 1.625 C9.6875 2.285 9.6875 2.945 9.6875 3.625 C11.9975 3.955 14.3075 4.285 16.6875 4.625 C17.0175 5.615 17.3475 6.605 17.6875 7.625 C19.3375 7.625 20.9875 7.625 22.6875 7.625 C22.6875 8.285 22.6875 8.945 22.6875 9.625 C30.6075 9.955 38.5275 10.285 46.6875 10.625 C46.6875 11.285 46.6875 11.945 46.6875 12.625 C38.73773037 15.27492321 30.06472477 13.20621397 22.0625 11.625 C20.55623047 11.33882812 20.55623047 11.33882812 19.01953125 11.046875 C16.57383744 10.58102856 14.13005719 10.10697402 11.6875 9.625 C11.6875 8.965 11.6875 8.305 11.6875 7.625 C10.98625 7.521875 10.285 7.41875 9.5625 7.3125 C6.29612353 6.53140997 3.6403148 5.20441257 0.6875 3.625 C0.6875 2.965 0.6875 2.305 0.6875 1.625 C-0.9625 1.625 -2.6125 1.625 -4.3125 1.625 C-3.9825 8.885 -3.6525 16.145 -3.3125 23.625 C1.1425 25.605 1.1425 25.605 5.6875 27.625 C7.0075 28.285 8.3275 28.945 9.6875 29.625 C8.33259704 29.50825099 6.97859304 29.38106577 5.625 29.25 C4.87089844 29.18039063 4.11679688 29.11078125 3.33984375 29.0390625 C0.06298507 28.52750577 -3.12355932 27.53612591 -6.3125 26.625 C-6.3125 18.045 -6.3125 9.465 -6.3125 0.625 C-3.85994998 -0.60127501 -2.69588039 -0.33528596 0 0 Z " fill="#F19C36" transform="translate(185.3125,120.375)"/>
<path d="M0 0 C0.33 0.66 0.66 1.32 1 2 C0.01 2.66 -0.98 3.32 -2 4 C-2.94099518 7.35011711 -3.52671182 10.70766601 -4.15625 14.12890625 C-4.4346875 15.07636719 -4.713125 16.02382812 -5 17 C-5.99 17.33 -6.98 17.66 -8 18 C-7.88162872 21.93289545 -7.75737207 25.86555666 -7.62768555 29.7980957 C-7.56312994 31.79303319 -7.5032217 33.78811929 -7.44335938 35.78320312 C-7.40146484 37.03681641 -7.35957031 38.29042969 -7.31640625 39.58203125 C-7.27974854 40.73936768 -7.24309082 41.8967041 -7.20532227 43.08911133 C-7.11671491 46.0643446 -7.11671491 46.0643446 -6 49 C-5.96045766 51.33299825 -5.95598268 53.66708189 -6 56 C-6.33 55.34 -6.66 54.68 -7 54 C-7.99 54 -8.98 54 -10 54 C-11.54611184 50.90777632 -11.14201986 47.64645215 -11.1328125 44.25390625 C-11.13376923 43.48698959 -11.13472595 42.72007294 -11.13571167 41.92991638 C-11.13639262 40.306711 -11.13454426 38.6835029 -11.13037109 37.06030273 C-11.12502891 34.57594675 -11.13031515 32.09177216 -11.13671875 29.60742188 C-11.13605781 28.0312496 -11.13477632 26.45507744 -11.1328125 24.87890625 C-11.13483673 24.13508194 -11.13686096 23.39125763 -11.13894653 22.62489319 C-11.12466415 19.48019165 -11.00205986 17.00617959 -10 14 C-9.34 14 -8.68 14 -8 14 C-7.9175 13.13375 -7.835 12.2675 -7.75 11.375 C-6.60085173 6.20383278 -4.39718266 2.9314551 0 0 Z " fill="#29AAEE" transform="translate(51,58)"/>
<path d="M0 0 C11.52164009 -0.18451025 11.52164009 -0.18451025 17 1 C17 1.66 17 2.32 17 3 C17.639375 3.309375 18.27875 3.61875 18.9375 3.9375 C21 5 21 5 22 6 C22.25146124 9.45114703 22.18522419 12.91577203 22.1875 16.375 C22.19974609 17.34695312 22.21199219 18.31890625 22.22460938 19.3203125 C22.22750977 20.72023438 22.22750977 20.72023438 22.23046875 22.1484375 C22.23457764 23.00614746 22.23868652 23.86385742 22.24291992 24.74755859 C22 27 22 27 20 30 C12.97338403 30.66920152 12.97338403 30.66920152 10 28.625 C9 27 9 27 9 25 C13.455 25.99 13.455 25.99 18 27 C18 19.74 18 12.48 18 5 C15.03 4.505 15.03 4.505 12 4 C9.87002606 3.49989663 7.74477178 2.97921945 5.625 2.4375 C4.56539062 2.16808594 3.50578125 1.89867188 2.4140625 1.62109375 C1.21910156 1.31365234 1.21910156 1.31365234 0 1 C0 0.67 0 0.34 0 0 Z " fill="#F1A445" transform="translate(242,29)"/>
<path d="M0 0 C1.65 0 3.3 0 5 0 C4.2575 0.721875 3.515 1.44375 2.75 2.1875 C-0.00132178 4.90568233 -0.00132178 4.90568233 -2.1875 7.75 C-4 10 -4 10 -6 11 C-7.13102526 13.34038186 -7.13102526 13.34038186 -8.125 16.0625 C-8.47820312 16.98160156 -8.83140625 17.90070312 -9.1953125 18.84765625 C-9.46085938 19.55792969 -9.72640625 20.26820312 -10 21 C-10.66 21 -11.32 21 -12 21 C-11.97349212 33.79005438 -11.72640158 44.488531 -2.125 54.0625 C-1.073125 55.0215625 -1.073125 55.0215625 0 56 C0 56.66 0 57.32 0 58 C-2.9375 57.25 -2.9375 57.25 -6 56 C-6.875 53.875 -6.875 53.875 -7 52 C-7.66 52 -8.32 52 -9 52 C-9 51.34 -9 50.68 -9 50 C-9.66 50 -10.32 50 -11 50 C-13.29822325 46.35783305 -13.23128602 43.29174993 -13.1953125 39.046875 C-13.1924826 38.38665344 -13.18965271 37.72643188 -13.18673706 37.04620361 C-13.17558415 34.94728103 -13.15048946 32.84879258 -13.125 30.75 C-13.11496384 29.32292285 -13.1058391 27.89583898 -13.09765625 26.46875 C-13.07566111 22.97902672 -13.04116536 19.48955577 -13 16 C-12.34 16 -11.68 16 -11 16 C-11.04125 15.236875 -11.0825 14.47375 -11.125 13.6875 C-11 11 -11 11 -9 8 C-8.34 8 -7.68 8 -7 8 C-7 7.01 -7 6.02 -7 5 C-5.68 4.67 -4.36 4.34 -3 4 C-3 3.34 -3 2.68 -3 2 C-2.01 2 -1.02 2 0 2 C0 1.34 0 0.68 0 0 Z " fill="#F2A84E" transform="translate(195,32)"/>
<path d="M0 0 C0 7.26 0 14.52 0 22 C-7.875 20.875 -7.875 20.875 -12 19 C-12 18.67 -12 18.34 -12 18 C-8.37 18.33 -4.74 18.66 -1 19 C-1 13.72 -1 8.44 -1 3 C-3.475 2.505 -3.475 2.505 -6 2 C-6 1.34 -6 0.68 -6 0 C-6.721875 0.04125 -7.44375 0.0825 -8.1875 0.125 C-11 0 -11 0 -13.34375 -0.96875 C-23.10638512 -4.75894952 -38.91109303 -4.20912273 -49 -2 C-51.33301986 -1.96175377 -53.66711508 -1.95425716 -56 -2 C-55.67 -2.66 -55.34 -3.32 -55 -4 C-38.09219125 -9.51119722 -16.16069025 -6.06025884 0 0 Z " fill="#FCE7C0" transform="translate(260,34)"/>
<path d="M0 0 C0.66 0 1.32 0 2 0 C1.73844293 1.5016453 1.46513114 3.0012433 1.1875 4.5 C1.03667969 5.3353125 0.88585937 6.170625 0.73046875 7.03125 C0 10 0 10 -1.55078125 13.58203125 C-3.64017945 19.01331397 -3.44876622 24.43675455 -3.375 30.1875 C-3.36702393 31.30084717 -3.35904785 32.41419434 -3.35083008 33.5612793 C-3.21333255 41.49146346 -2.3409395 48.40776378 0 56 C0.57225417 58.2683949 1.13496691 60.53922099 1.6875 62.8125 C2.12378385 64.54197391 2.56080723 66.27126251 3 68 C2.34 68 1.68 68 1 68 C1 66.68 1 65.36 1 64 C0.34 64 -0.32 64 -1 64 C-1 62.02 -1 60.04 -1 58 C-1.66 58 -2.32 58 -3 58 C-3.33 55.03 -3.66 52.06 -4 49 C-4.66 49 -5.32 49 -6 49 C-6.02488484 44.85571691 -6.04294686 40.71147446 -6.05493164 36.56713867 C-6.0599327 35.15990439 -6.0667357 33.75267523 -6.07543945 32.34545898 C-6.08769159 30.31232431 -6.0932707 28.27925886 -6.09765625 26.24609375 C-6.10289307 25.02591553 -6.10812988 23.8057373 -6.11352539 22.54858398 C-5.99887643 18.96487943 -5.57327963 15.53687745 -5 12 C-4.34 12 -3.68 12 -3 12 C-2.95101563 11.38511719 -2.90203125 10.77023438 -2.8515625 10.13671875 C-2.77679687 9.32847656 -2.70203125 8.52023438 -2.625 7.6875 C-2.52058594 6.48673828 -2.52058594 6.48673828 -2.4140625 5.26171875 C-2 3 -2 3 0 0 Z " fill="#2EAEEE" transform="translate(19,58)"/>
<path d="M0 0 C1.65 0 3.3 0 5 0 C5 0.66 5 1.32 5 2 C6.3303125 2.433125 6.3303125 2.433125 7.6875 2.875 C10.50382424 3.83148748 13.25083156 4.86798946 16 6 C16 6.66 16 7.32 16 8 C16.74765625 8.04898438 17.4953125 8.09796875 18.265625 8.1484375 C19.25046875 8.22320312 20.2353125 8.29796875 21.25 8.375 C22.22453125 8.44460937 23.1990625 8.51421875 24.203125 8.5859375 C26.89633189 8.98465249 28.66963279 9.63507063 31 11 C20.80925305 11.57683473 12.10275884 8.32754109 3 4 C3.33 9.61 3.66 15.22 4 21 C4.99 21.33 5.98 21.66 7 22 C7 22.66 7 23.32 7 24 C7.66 24.33 8.32 24.66 9 25 C2.25 24.25 2.25 24.25 0 22 C-0.22705078 19.75341797 -0.22705078 19.75341797 -0.1953125 16.9921875 C-0.18886719 16.00605469 -0.18242187 15.01992187 -0.17578125 14.00390625 C-0.15902344 12.97136719 -0.14226562 11.93882812 -0.125 10.875 C-0.11597656 9.83472656 -0.10695312 8.79445312 -0.09765625 7.72265625 C-0.07403747 5.14820908 -0.04110149 2.57421788 0 0 Z " fill="#FCF0D3" transform="translate(181,122)"/>
<path d="M0 0 C0.33 0 0.66 0 1 0 C1 1.98 1 3.96 1 6 C0.34 6 -0.32 6 -1 6 C-1 8.64 -1 11.28 -1 14 C-1.66 14 -2.32 14 -3 14 C-3.33 18.29 -3.66 22.58 -4 27 C-3.67 27 -3.34 27 -3 27 C-2.91697632 27.9744104 -2.91697632 27.9744104 -2.83227539 28.96850586 C-2.57686018 31.95827241 -2.31969074 34.94788568 -2.0625 37.9375 C-1.97548828 38.95908203 -1.88847656 39.98066406 -1.79882812 41.03320312 C-1.81976328 51.17054199 -1.81976328 51.17054199 1 60 C1.04080783 61.99958364 1.04254356 64.00045254 1 66 C-0.81810919 62.65728804 -1.94869219 59.25863918 -3.0625 55.625 C-3.40410156 54.52414063 -3.74570312 53.42328125 -4.09765625 52.2890625 C-6.08398527 45.04885021 -6.21522204 38.08487181 -6.25 30.625 C-6.270625 29.52671875 -6.29125 28.4284375 -6.3125 27.296875 C-6.34398235 20.73280551 -5.64316961 15.99979116 -3 10 C-2.65596692 7.66822025 -2.32050798 5.33512959 -2 3 C-1.34 2.01 -0.68 1.02 0 0 Z " fill="#D1F4FD" transform="translate(21,58)"/>
<path d="M0 0 C7.22817047 0.18891105 7.22817047 0.18891105 10.57910156 0.29541016 C12.85482542 0.36545107 15.13057349 0.41987537 17.40673828 0.47338867 C18.85077733 0.51605014 20.29478932 0.55963968 21.73876953 0.60424805 C23.05731934 0.64203369 24.37586914 0.67981934 25.734375 0.71875 C28.99658203 1.0534668 28.99658203 1.0534668 31.99658203 3.0534668 C31.10575928 3.03251953 30.21493652 3.01157227 29.29711914 2.98999023 C25.91419638 2.92082145 22.5320506 2.87119589 19.14868164 2.83374023 C17.69901493 2.81392338 16.24942476 2.78686145 14.80004883 2.75170898 C2.45030505 2.46021902 -9.23405776 3.38393506 -20.00341797 10.0534668 C-20.66341797 10.0534668 -21.32341797 10.0534668 -22.00341797 10.0534668 C-22.00341797 10.7134668 -22.00341797 11.3734668 -22.00341797 12.0534668 C-23.36466797 12.7031543 -23.36466797 12.7031543 -24.75341797 13.3659668 C-27.43560246 14.75863951 -29.66481401 16.16459437 -32.00341797 18.0534668 C-31.67341797 16.4034668 -31.34341797 14.7534668 -31.00341797 13.0534668 C-30.01341797 13.0534668 -29.02341797 13.0534668 -28.00341797 13.0534668 C-28.00341797 12.0634668 -28.00341797 11.0734668 -28.00341797 10.0534668 C-27.34341797 10.0534668 -26.68341797 10.0534668 -26.00341797 10.0534668 C-25.67341797 9.0634668 -25.34341797 8.0734668 -25.00341797 7.0534668 C-20.54841797 6.5584668 -20.54841797 6.5584668 -16.00341797 6.0534668 C-16.00341797 5.3934668 -16.00341797 4.7334668 -16.00341797 4.0534668 C-14.35341797 4.0534668 -12.70341797 4.0534668 -11.00341797 4.0534668 C-11.00341797 3.3934668 -11.00341797 2.7334668 -11.00341797 2.0534668 C-9.86904297 1.9090918 -8.73466797 1.7647168 -7.56591797 1.6159668 C-3.9479891 1.04471487 -3.49634558 0.06224189 0 0 Z " fill="#53BEF4" transform="translate(64.00341796875,25.946533203125)"/>
<path d="M0 0 C7.59 0 15.18 0 23 0 C23.1546875 4.6096875 23.1546875 4.6096875 23.3125 9.3125 C23.35802002 10.27712158 23.40354004 11.24174316 23.45043945 12.2355957 C23.48856971 14.56842957 23.43298091 16.7053675 23 19 C17.68126624 24.2158569 8.53812723 24.34462953 1.4375 24.3125 C0.72142578 24.32861328 0.00535156 24.34472656 -0.73242188 24.36132812 C-5.86492853 24.36599829 -9.40631288 23.28778898 -14 21 C-10.98968256 20.06576355 -10.13349732 19.95550089 -7 21 C-5.22686149 21.08209792 -3.45079225 21.10746294 -1.67578125 21.09765625 C-0.64775391 21.09443359 0.38027344 21.09121094 1.43945312 21.08789062 C2.51130859 21.07951172 3.58316406 21.07113281 4.6875 21.0625 C5.77095703 21.05798828 6.85441406 21.05347656 7.97070312 21.04882812 C10.64719085 21.03703743 13.32356777 21.02058063 16 21 C16.66 19.68 17.32 18.36 18 17 C18.99 17 19.98 17 21 17 C20.98839844 16.01257813 20.97679687 15.02515625 20.96484375 14.0078125 C20.95582031 12.72648437 20.94679687 11.44515625 20.9375 10.125 C20.92589844 8.84882812 20.91429687 7.57265625 20.90234375 6.2578125 C21 3 21 3 22 1 C14.74 1 7.48 1 0 1 C0 0.67 0 0.34 0 0 Z " fill="#4BB8EF" transform="translate(75,108)"/>
<path d="M0 0 C4.97093824 0.41153737 9.44508386 0.79600832 14 3 C14 3.66 14 4.32 14 5 C16.64 5 19.28 5 22 5 C22 5.66 22 6.32 22 7 C26.1668836 6.85999343 30.33344499 6.71194282 34.5 6.5625 C36.25957031 6.50352539 36.25957031 6.50352539 38.0546875 6.44335938 C44.09570769 6.22276032 50.0180985 5.88099787 56 5 C56 5.66 56 6.32 56 7 C48.47802506 8.82357267 41.28847259 9.36559529 33.5625 9.375 C31.97985352 9.41173828 31.97985352 9.41173828 30.36523438 9.44921875 C22.78407805 9.47721071 16.95811328 7.88869531 10 5 C7.67997327 4.26650334 5.34937068 3.63628789 3 3 C2.01 2.67 1.02 2.34 0 2 C0 1.34 0 0.68 0 0 Z " fill="#97DFF9" transform="translate(42,145)"/>
<path d="M0 0 C0.44730469 0.39832031 0.89460938 0.79664063 1.35546875 1.20703125 C4.13848965 3.64588325 6.74827906 5.85003859 9.9375 7.75 C10.9584375 8.36875 10.9584375 8.36875 12 9 C12 9.66 12 10.32 12 11 C12.59425781 11.09796875 13.18851563 11.1959375 13.80078125 11.296875 C20.50540966 12.50641916 26.66312153 14.51825672 33 17 C33 17.33 33 17.66 33 18 C22.44191344 19.33257403 22.44191344 19.33257403 18 18 C18 17.34 18 16.68 18 16 C13.98195309 15.15901344 10.98196457 14.94595055 7 16 C7.33 15.34 7.66 14.68 8 14 C8.66 14 9.32 14 10 14 C10 13.01 10 12.02 10 11 C9.01 10.67 8.02 10.34 7 10 C6.67 9.34 6.34 8.68 6 8 C3.97536745 7.34786708 3.97536745 7.34786708 2 7 C1.34 4.69 0.68 2.38 0 0 Z " fill="#18A8F2" transform="translate(30,136)"/>
<path d="M0 0 C0.69867188 -0.00386719 1.39734375 -0.00773437 2.1171875 -0.01171875 C5.87074298 -0.00463657 9.35151145 0.22712977 13 1.125 C13 1.785 13 2.445 13 3.125 C14.98567708 3.3203125 16.97135417 3.515625 18.95703125 3.7109375 C21 4.125 21 4.125 24 6.125 C22.00045254 6.16754356 19.99958364 6.16580783 18 6.125 C17.505 5.63 17.505 5.63 17 5.125 C14.47804033 4.72556824 11.97036344 4.37420152 9.4375 4.0625 C8.72658203 3.97162109 8.01566406 3.88074219 7.28320312 3.78710938 C5.52261597 3.56260497 3.76136522 3.34331603 2 3.125 C2 2.465 2 1.805 2 1.125 C0.10399631 1.43646472 -1.79179587 1.74921717 -3.6875 2.0625 C-4.74324219 2.23652344 -5.79898438 2.41054688 -6.88671875 2.58984375 C-9.60249604 3.05667121 -12.30124235 3.56922616 -15 4.125 C-15 4.785 -15 5.445 -15 6.125 C-15.66 6.125 -16.32 6.125 -17 6.125 C-17 9.425 -17 12.725 -17 16.125 C-17.99 16.125 -18.98 16.125 -20 16.125 C-20.48970976 8.901781 -20.48970976 8.901781 -18.1875 5.25 C-12.65781186 -0.12169705 -7.37127282 -0.0408004 0 0 Z " fill="#F1B25F" transform="translate(227,47.875)"/>
<path d="M0 0 C1.20720703 -0.01611328 2.41441406 -0.03222656 3.65820312 -0.04882812 C11.30140299 -0.05296182 17.94075562 0.86105428 25.1875 3.3125 C25.1875 3.6425 25.1875 3.9725 25.1875 4.3125 C18.97541242 4.49886263 13.25796429 4.6070253 7.27734375 2.82421875 C3.00317555 1.77764672 -1.43304384 1.61841789 -5.8125 1.3125 C-6.1425 2.3025 -6.4725 3.2925 -6.8125 4.3125 C-13.0825 4.3125 -19.3525 4.3125 -25.8125 4.3125 C-17.27623939 0.0443697 -9.39892607 -0.02485173 0 0 Z " fill="#BCEFFC" transform="translate(77.8125,27.6875)"/>
<path d="M0 0 C4.87664009 -0.34833144 7.77050005 0.58314288 12 3 C12 3.66 12 4.32 12 5 C22.56 5.66 33.12 6.32 44 7 C44 7.66 44 8.32 44 9 C36.05023037 11.64992321 27.37722477 9.58121397 19.375 8 C18.37082031 7.80921875 17.36664063 7.6184375 16.33203125 7.421875 C13.88633744 6.95602856 11.44255719 6.48197402 9 6 C9 5.34 9 4.68 9 4 C8.2575 3.87625 7.515 3.7525 6.75 3.625 C4.19858515 3.04513299 2.2732427 2.26291261 0 1 C0 0.67 0 0.34 0 0 Z " fill="#F4BA70" transform="translate(188,124)"/>
<path d="M0 0 C1.19109375 0.00064453 2.3821875 0.00128906 3.609375 0.00195312 C12.35940189 0.04690189 12.35940189 0.04690189 13.5 1.1875 C14.61375 1.31125 15.7275 1.435 16.875 1.5625 C20.40207504 2.17061639 21.44362388 2.40534407 23.5 5.1875 C15.93751488 4.43125149 15.93751488 4.43125149 13.70507812 3.1875 C11.04817887 1.98259972 8.98905142 1.87046838 6.078125 1.7734375 C4.54091797 1.71542969 4.54091797 1.71542969 2.97265625 1.65625 C1.90917969 1.6253125 0.84570312 1.594375 -0.25 1.5625 C-1.86841797 1.50449219 -1.86841797 1.50449219 -3.51953125 1.4453125 C-6.17951775 1.35115369 -8.8394994 1.26552613 -11.5 1.1875 C-11.5 1.8475 -11.5 2.5075 -11.5 3.1875 C-15.37684087 4.38037411 -18.41621923 5.1875 -22.5 5.1875 C-22.5 6.1775 -22.5 7.1675 -22.5 8.1875 C-25.5 10.1875 -25.5 10.1875 -28.5 10.1875 C-28.5 9.5275 -28.5 8.8675 -28.5 8.1875 C-27.84 8.1875 -27.18 8.1875 -26.5 8.1875 C-26.5 7.5275 -26.5 6.8675 -26.5 6.1875 C-25.84 6.1875 -25.18 6.1875 -24.5 6.1875 C-24.5 5.5275 -24.5 4.8675 -24.5 4.1875 C-23.84 4.1875 -23.18 4.1875 -22.5 4.1875 C-22.5 3.5275 -22.5 2.8675 -22.5 2.1875 C-14.91431153 0.13709489 -7.83315064 -0.08268326 0 0 Z " fill="#C1F1FD" transform="translate(80.5,47.8125)"/>
<path d="M0 0 C2.03028182 -0.00971543 4.05955479 -0.04075771 6.08959961 -0.07226562 C7.37157227 -0.07742187 8.65354492 -0.08257813 9.97436523 -0.08789062 C11.14926514 -0.09723633 12.32416504 -0.10658203 13.53466797 -0.11621094 C16.84680041 0.2685224 18.19809051 0.99613943 20.60327148 3.24023438 C19.59913208 3.22452393 19.59913208 3.22452393 18.57470703 3.20849609 C15.48010155 3.16638537 12.3855567 3.14073584 9.29077148 3.11523438 C7.71199219 3.09009766 7.71199219 3.09009766 6.10131836 3.06445312 C-0.9664862 3.02095894 -7.49591729 3.74433612 -14.39672852 5.24023438 C-16.06303275 5.57537478 -17.72959805 5.90922846 -19.39672852 6.24023438 C-18.40672852 5.91023438 -17.41672852 5.58023437 -16.39672852 5.24023438 C-16.23172852 4.58023437 -16.06672852 3.92023437 -15.89672852 3.24023438 C-15.73172852 2.58023437 -15.56672852 1.92023437 -15.39672852 1.24023438 C-10.41239563 -0.42120992 -5.2198629 0.01514284 0 0 Z " fill="#F0B05A" transform="translate(219.396728515625,25.759765625)"/>
<path d="M0 0 C-1.66215268 1.33895632 -3.32963607 2.67130142 -5 4 C-5.59554687 4.49628906 -6.19109375 4.99257812 -6.8046875 5.50390625 C-9.40750686 7.27771375 -11.88032627 8.15725556 -14.875 9.125 C-15.88304688 9.45757812 -16.89109375 9.79015625 -17.9296875 10.1328125 C-22.59965422 11.45181073 -27.02461364 12.1359907 -31.875 12.0625 C-32.65617187 12.05347656 -33.43734375 12.04445312 -34.2421875 12.03515625 C-34.82226562 12.02355469 -35.40234375 12.01195312 -36 12 C-36 11.34 -36 10.68 -36 10 C-33.58374679 9.66340751 -31.16707192 9.33061612 -28.75 9 C-28.06808594 8.90460938 -27.38617188 8.80921875 -26.68359375 8.7109375 C-23.40628012 8.2654774 -20.31615847 8 -17 8 C-16.690625 7.071875 -16.690625 7.071875 -16.375 6.125 C-14.43692131 3.12978747 -12.36839582 2.94315083 -9 2 C-8.319375 1.62875 -7.63875 1.2575 -6.9375 0.875 C-4.52612646 -0.2140074 -2.61567161 -0.14531509 0 0 Z " fill="#D6F7FC" transform="translate(117,140)"/>
<path d="M0 0 C4.67692308 1.47692308 4.67692308 1.47692308 6.3125 4.125 C6.539375 4.74375 6.76625 5.3625 7 6 C7.66 6 8.32 6 9 6 C10.29758261 8.59516521 10.13269102 10.54183027 10.125 13.4375 C10.12757813 14.40558594 10.13015625 15.37367187 10.1328125 16.37109375 C10 19 10 19 9 22 C6.93359375 22.94921875 6.93359375 22.94921875 4.4375 23.6875 C3.61121094 23.93886719 2.78492188 24.19023437 1.93359375 24.44921875 C1.29550781 24.63097656 0.65742188 24.81273437 0 25 C0 24.01 0 23.02 0 22 C0.99 22 1.98 22 3 22 C3 21.34 3 20.68 3 20 C3.99 20 4.98 20 6 20 C6.66 16.7 7.32 13.4 8 10 C7.01 9.67 6.02 9.34 5 9 C3.96986723 7.35178756 2.96885372 5.68496298 2 4 C1.34 3.67 0.68 3.34 0 3 C0 2.01 0 1.02 0 0 Z " fill="#F2B466" transform="translate(232,106)"/>
<path d="M0 0 C1.64696604 0.4752588 3.29254728 0.95531891 4.9375 1.4375 C6.31228516 1.83775391 6.31228516 1.83775391 7.71484375 2.24609375 C10 3 10 3 11 4 C11.08685603 5.56172745 11.10702219 7.12729344 11.09765625 8.69140625 C11.09443359 9.63564453 11.09121094 10.57988281 11.08789062 11.55273438 C11.07951172 12.54595703 11.07113281 13.53917969 11.0625 14.5625 C11.05798828 15.55958984 11.05347656 16.55667969 11.04882812 17.58398438 C11.03700007 20.05604849 11.02051849 22.52799518 11 25 C9.53984709 24.71758359 8.08190207 24.42373386 6.625 24.125 C5.81289062 23.96257813 5.00078125 23.80015625 4.1640625 23.6328125 C2 23 2 23 0 21 C2.64 21 5.28 21 8 21 C8 16.05 8 11.1 8 6 C5.36 5.01 2.72 4.02 0 3 C0 2.01 0 1.02 0 0 Z " fill="#B8EEFD" transform="translate(104,32)"/>
<path d="M0 0 C3.96 0 7.92 0 12 0 C12 0.66 12 1.32 12 2 C21.24 2 30.48 2 40 2 C40 2.66 40 3.32 40 4 C29.44 4 18.88 4 8 4 C8 3.34 8 2.68 8 2 C7.05125 2.04125 6.1025 2.0825 5.125 2.125 C2 2 2 2 0 0 Z " fill="#F9D49E" transform="translate(200,150)"/>
<path d="M0 0 C3.68734775 -0.08776185 7.37442347 -0.14064603 11.0625 -0.1875 C12.62000977 -0.22520508 12.62000977 -0.22520508 14.20898438 -0.26367188 C20.34409635 -0.32210151 24.55388367 0.16106702 30 3 C32.77888613 3.69140522 32.77888613 3.69140522 35 4 C35 4.33 35 4.66 35 5 C32.39555652 5.05394705 29.79223002 5.09364469 27.1875 5.125 C26.44951172 5.14175781 25.71152344 5.15851562 24.95117188 5.17578125 C21.08753574 5.21074628 19.29096332 5.19397555 16 3 C13.97078331 2.72598982 13.97078331 2.72598982 11.76953125 2.8046875 C10.96708984 2.81113281 10.16464844 2.81757812 9.33789062 2.82421875 C8.50451172 2.84097656 7.67113281 2.85773437 6.8125 2.875 C5.5450293 2.88853516 5.5450293 2.88853516 4.25195312 2.90234375 C2.16784757 2.92589297 0.08388783 2.96176353 -2 3 C-1.34 2.67 -0.68 2.34 0 2 C0 1.34 0 0.68 0 0 Z " fill="#4CB9EE" transform="translate(69,49)"/>
<path d="M0 0 C0.66 0.33 1.32 0.66 2 1 C-2.75 5 -2.75 5 -5 5 C-5 5.66 -5 6.32 -5 7 C-6.32 7.33 -7.64 7.66 -9 8 C-9 8.66 -9 9.32 -9 10 C-9.99 10 -10.98 10 -12 10 C-12.226875 10.556875 -12.45375 11.11375 -12.6875 11.6875 C-14.35666538 14.62841043 -16.6135675 16.6135675 -19 19 C-19.53625 19.928125 -20.0725 20.85625 -20.625 21.8125 C-21.07875 22.534375 -21.5325 23.25625 -22 24 C-22.99 24 -23.98 24 -25 24 C-25 23.34 -25 22.68 -25 22 C-24.34 22 -23.68 22 -23 22 C-22.731875 21.46375 -22.46375 20.9275 -22.1875 20.375 C-21.795625 19.59125 -21.40375 18.8075 -21 18 C-20.5875 17.030625 -20.175 16.06125 -19.75 15.0625 C-17.18726333 10.57771082 -14.24523843 7.63452391 -9.125 6.1875 C-8.073125 6.0946875 -8.073125 6.0946875 -7 6 C-7 5.34 -7 4.68 -7 4 C-1.7265625 0.77734375 -1.7265625 0.77734375 0 0 Z " fill="#CEF4FB" transform="translate(49,32)"/>
<path d="M0 0 C6.80400936 0.85209089 12.19495191 2.20504447 18.02734375 5.87890625 C20.02350761 7.01335977 21.75845917 7.55369769 24 8 C24 8.66 24 9.32 24 10 C24.99 10 25.98 10 27 10 C27.99 13.3 28.98 16.6 30 20 C29.34 20 28.68 20 28 20 C26.5 17.5 26.5 17.5 25 15 C18.70003241 7.36367565 9.28835532 4.43078235 0 2 C0 1.34 0 0.68 0 0 Z " fill="#F5C17D" transform="translate(232,78)"/>
<path d="M0 0 C0.90492187 0.10828125 0.90492187 0.10828125 1.828125 0.21875 C3.02695313 0.35796875 3.02695313 0.35796875 4.25 0.5 C5.03890625 0.5928125 5.8278125 0.685625 6.640625 0.78125 C9.26890397 1.06154619 9.26890397 1.06154619 13 1 C14.01973129 4.05919388 14.11533602 6.12418025 14.09765625 9.32421875 C14.09443359 10.35224609 14.09121094 11.38027344 14.08789062 12.43945312 C14.07951172 13.51130859 14.07113281 14.58316406 14.0625 15.6875 C14.05798828 16.77095703 14.05347656 17.85441406 14.04882812 18.97070312 C14.03703743 21.64719085 14.02058063 24.32356777 14 27 C11.69 27 9.38 27 7 27 C6.67 26.34 6.34 25.68 6 25 C7.98 25.33 9.96 25.66 12 26 C11.67 19.07 11.34 12.14 11 5 C7.37 3.68 3.74 2.36 0 1 C0 0.67 0 0.34 0 0 Z " fill="#44B8F1" transform="translate(103,31)"/>
<path d="M0 0 C1.32 0 2.64 0 4 0 C3.37104172 2.93513864 2.41105919 5.35426402 1 8 C0.67 8.66 0.34 9.32 0 10 C-0.33 10 -0.66 10 -1 10 C-1.20496094 11.20398438 -1.40992188 12.40796875 -1.62109375 13.6484375 C-1.89306359 15.22398692 -2.16520807 16.79950621 -2.4375 18.375 C-2.57220703 19.1690625 -2.70691406 19.963125 -2.84570312 20.78125 C-3.88671875 26.7734375 -3.88671875 26.7734375 -5 29 C-5.2275015 30.87056791 -5.40962811 32.74685958 -5.5625 34.625 C-5.64628906 35.62789062 -5.73007812 36.63078125 -5.81640625 37.6640625 C-5.87699219 38.43492188 -5.93757813 39.20578125 -6 40 C-6.33 40 -6.66 40 -7 40 C-7.3690205 23.1070615 -7.3690205 23.1070615 -5 16 C-4.34 16 -3.68 16 -3 16 C-3 13.36 -3 10.72 -3 8 C-2.34 8 -1.68 8 -1 8 C-1.020625 7.05125 -1.04125 6.1025 -1.0625 5.125 C-1 2 -1 2 0 0 Z " fill="#E4FBFB" transform="translate(23,56)"/>
<path d="M0 0 C0.76634766 0.00064453 1.53269531 0.00128906 2.32226562 0.00195312 C7.92158901 0.04658901 7.92158901 0.04658901 9.0625 1.1875 C11.39067964 1.55510731 13.7243385 1.88991581 16.0625 2.1875 C16.0625 2.8475 16.0625 3.5075 16.0625 4.1875 C17.3825 4.1875 18.7025 4.1875 20.0625 4.1875 C20.0625 4.8475 20.0625 5.5075 20.0625 6.1875 C17.4225 5.8575 14.7825 5.5275 12.0625 5.1875 C12.0625 4.5275 12.0625 3.8675 12.0625 3.1875 C8.72924246 3.12875224 5.39612062 3.09365533 2.0625 3.0625 C0.66064453 3.03736328 0.66064453 3.03736328 -0.76953125 3.01171875 C-6.52959963 2.97143855 -11.4149282 3.53333345 -16.9375 5.1875 C-16.9375 4.1975 -16.9375 3.2075 -16.9375 2.1875 C-11.1370468 0.52176259 -6.01921698 -0.09970804 0 0 Z " fill="#FDE9C7" transform="translate(227.9375,45.8125)"/>
<path d="M0 0 C0.83909912 0.00088623 1.67819824 0.00177246 2.54272461 0.00268555 C3.42323486 0.015979 4.30374512 0.02927246 5.2109375 0.04296875 C6.11013916 0.05303955 7.00934082 0.06311035 7.93579102 0.07348633 C10.48638789 0.11117532 13.03584653 0.16794834 15.5859375 0.23046875 C16.69582031 0.24851562 17.80570313 0.2665625 18.94921875 0.28515625 C23.11306123 0.49998272 25.65554311 0.82965474 28.7109375 3.79296875 C29.6390625 4.99953125 29.6390625 4.99953125 30.5859375 6.23046875 C28.2759375 5.90046875 25.9659375 5.57046875 23.5859375 5.23046875 C23.5859375 4.57046875 23.5859375 3.91046875 23.5859375 3.23046875 C13.0259375 2.90046875 2.4659375 2.57046875 -8.4140625 2.23046875 C-4.78012918 0.41350209 -3.75806434 -0.02049853 0 0 Z " fill="#20A8F0" transform="translate(72.4140625,24.76953125)"/>
<path d="M0 0 C0.66 0 1.32 0 2 0 C2.05789006 3.45826342 2.09355821 6.91640293 2.125 10.375 C2.14175781 11.35984375 2.15851563 12.3446875 2.17578125 13.359375 C2.18222656 14.30039063 2.18867187 15.24140625 2.1953125 16.2109375 C2.20578613 17.08024902 2.21625977 17.94956055 2.22705078 18.84521484 C2 21 2 21 0 23 C-3.0390625 23.4140625 -3.0390625 23.4140625 -6.625 23.625 C-7.81351562 23.69976562 -9.00203125 23.77453125 -10.2265625 23.8515625 C-11.14179687 23.90054688 -12.05703125 23.94953125 -13 24 C-8.89278851 21.26185901 -4.76704457 20.19176114 0 19 C0 12.73 0 6.46 0 0 Z " fill="#B9ECFC" transform="translate(98,108)"/>
<path d="M0 0 C0.33 0 0.66 0 1 0 C1.01458252 0.56807373 1.02916504 1.13614746 1.04418945 1.72143555 C1.36186854 12.82673324 1.97159211 23.25128467 5 34 C5.56740328 36.26961314 6.13004833 38.54042211 6.6875 40.8125 C7.12378385 42.54197391 7.56080723 44.27126251 8 46 C7.34 46 6.68 46 6 46 C6 44.68 6 43.36 6 42 C5.34 42 4.68 42 4 42 C4 40.02 4 38.04 4 36 C3.34 36 2.68 36 2 36 C-0.12755215 28.23527229 -0.23586592 20.95822327 -0.125 12.9375 C-0.11597656 11.69033203 -0.10695313 10.44316406 -0.09765625 9.15820312 C-0.07426209 6.10526496 -0.04148174 3.05273694 0 0 Z " fill="#60C2EF" transform="translate(14,80)"/>
<path d="M0 0 C1.65 0 3.3 0 5 0 C5 0.66 5 1.32 5 2 C4.01 2 3.02 2 2 2 C2.33 8.6 2.66 15.2 3 22 C4.32 22 5.64 22 7 22 C7 22.66 7 23.32 7 24 C7.66 24.33 8.32 24.66 9 25 C2.25 24.25 2.25 24.25 0 22 C-0.22705078 19.75341797 -0.22705078 19.75341797 -0.1953125 16.9921875 C-0.18886719 16.00605469 -0.18242187 15.01992187 -0.17578125 14.00390625 C-0.15902344 12.97136719 -0.14226562 11.93882812 -0.125 10.875 C-0.11597656 9.83472656 -0.10695312 8.79445312 -0.09765625 7.72265625 C-0.07403747 5.14820908 -0.04110149 2.57421788 0 0 Z " fill="#F9D7A2" transform="translate(181,122)"/>
<path d="M0 0 C2.475 0.495 2.475 0.495 5 1 C5.66 3.64 6.32 6.28 7 9 C7.66 9 8.32 9 9 9 C10.11328125 10.49609375 10.11328125 10.49609375 11.3125 12.4375 C13.37684215 15.50779899 13.37684215 15.50779899 16.8125 16.9375 C17.534375 16.958125 18.25625 16.97875 19 17 C19.33 18.32 19.66 19.64 20 21 C10.90590596 17.8820249 4.34343018 10.37265477 0 2 C0 1.34 0 0.68 0 0 Z " fill="#A1E3F8" transform="translate(22,124)"/>
<path d="M0 0 C0.33 0 0.66 0 1 0 C1 1.98 1 3.96 1 6 C0.34 6 -0.32 6 -1 6 C-1 8.64 -1 11.28 -1 14 C-1.66 14 -2.32 14 -3 14 C-3.88863409 20.33245134 -4.29382378 26.61343405 -4.5625 33 C-4.60568359 33.96550781 -4.64886719 34.93101563 -4.69335938 35.92578125 C-4.79841713 38.28374425 -4.90056914 40.64179416 -5 43 C-5.33 43 -5.66 43 -6 43 C-6.08783475 39.0001407 -6.14067102 35.00053296 -6.1875 31 C-6.21263672 29.87464844 -6.23777344 28.74929687 -6.26367188 27.58984375 C-6.32226092 20.91069303 -5.71179726 16.09806717 -3 10 C-2.65596692 7.66822025 -2.32050798 5.33512959 -2 3 C-1.34 2.01 -0.68 1.02 0 0 Z " fill="#96DFFB" transform="translate(21,58)"/>
<path d="M0 0 C8.01417543 2.3757437 15.83509626 4.9090722 23.5859375 8.046875 C26.3576599 9.141212 29.15864575 10.10273024 32 11 C32 11.66 32 12.32 32 13 C24.72311496 12.49814586 24.72311496 12.49814586 21.1875 10.0625 C17.29758902 7.54549878 14.03004204 7.14892634 9.48828125 6.58984375 C6.69640384 5.92803294 5.8534373 5.10870111 4 3 C1.89667109 2.28552357 1.89667109 2.28552357 0 2 C0 1.34 0 0.68 0 0 Z " fill="#F3BC6D" transform="translate(200,93)"/>
<path d="M0 0 C1.65 0 3.3 0 5 0 C4.2575 0.721875 3.515 1.44375 2.75 2.1875 C-0.01869452 4.88695198 -0.01869452 4.88695198 -2.0625 7.8125 C-2.701875 8.534375 -3.34125 9.25625 -4 10 C-5.32 10 -6.64 10 -8 10 C-8.12375 10.61875 -8.2475 11.2375 -8.375 11.875 C-9 14 -9 14 -11 16 C-11.20086443 12.28400809 -11.1519437 11.22791555 -9 8 C-8.34 8 -7.68 8 -7 8 C-7 7.01 -7 6.02 -7 5 C-5.68 4.67 -4.36 4.34 -3 4 C-3 3.34 -3 2.68 -3 2 C-2.01 2 -1.02 2 0 2 C0 1.34 0 0.68 0 0 Z " fill="#F4A84F" transform="translate(195,32)"/>
<path d="M0 0 C0.33 0 0.66 0 1 0 C1 15.84 1 31.68 1 48 C-0.98 48.495 -0.98 48.495 -3 49 C-3 48.01 -3 47.02 -3 46 C-2.01 46 -1.02 46 0 46 C0 30.82 0 15.64 0 0 Z " fill="#E1FBFD" transform="translate(120,91)"/>
<path d="M0 0 C0.66 0 1.32 0 2 0 C1.83773926 0.69891357 1.67547852 1.39782715 1.50830078 2.11791992 C0.96894576 5.17607845 0.87050949 8.00888407 0.8671875 11.11328125 C0.86589844 12.27923828 0.86460938 13.44519531 0.86328125 14.64648438 C0.86714844 15.85626953 0.87101562 17.06605469 0.875 18.3125 C0.87113281 19.51068359 0.86726563 20.70886719 0.86328125 21.94335938 C0.870018 28.05695653 1.05419901 33.95738256 2 40 C1.34 40 0.68 40 0 40 C-1.54611184 36.90777632 -1.14201986 33.64645215 -1.1328125 30.25390625 C-1.13376923 29.48698959 -1.13472595 28.72007294 -1.13571167 27.92991638 C-1.13639262 26.306711 -1.13454426 24.6835029 -1.13037109 23.06030273 C-1.12502891 20.57594675 -1.13031515 18.09177216 -1.13671875 15.60742188 C-1.13605781 14.0312496 -1.13477632 12.45507744 -1.1328125 10.87890625 C-1.13483673 10.13508194 -1.13686096 9.39125763 -1.13894653 8.62489319 C-1.12466415 5.48019165 -1.00205986 3.00617959 0 0 Z " fill="#86D5F9" transform="translate(41,72)"/>
<path d="M0 0 C2.64709159 0.97587255 5.29267447 1.95552145 7.9375 2.9375 C8.69224609 3.21529297 9.44699219 3.49308594 10.22460938 3.77929688 C15.88671875 5.88671875 15.88671875 5.88671875 17 7 C19.85877909 7.23701239 22.69883297 7.42219182 25.5625 7.5625 C26.36880859 7.60568359 27.17511719 7.64886719 28.00585938 7.69335938 C30.00368805 7.79975262 32.0018207 7.90040888 34 8 C34 8.33 34 8.66 34 9 C11.68095822 10.06056693 11.68095822 10.06056693 2 4 C0.66015625 1.828125 0.66015625 1.828125 0 0 Z " fill="#AFE8FB" transform="translate(51,124)"/>
<path d="M0 0 C4.52671196 0.53255435 7.4200555 2.21559872 11 5 C11.66 6.32 12.32 7.64 13 9 C9.7 8.67 6.4 8.34 3 8 C3 6.68 3 5.36 3 4 C2.01 3.34 1.02 2.68 0 2 C0 1.34 0 0.68 0 0 Z " fill="#FCF4E7" transform="translate(245,85)"/>
<path d="M0 0 C28.15153143 -0.61916858 28.15153143 -0.61916858 40 3 C40 3.33 40 3.66 40 4 C38.25034642 4.05429959 36.50020213 4.09292823 34.75 4.125 C33.77546875 4.14820313 32.8009375 4.17140625 31.796875 4.1953125 C29 4 29 4 27.20507812 3 C24.32781314 1.69516415 22.07460321 1.7737784 18.921875 1.8046875 C17.76171875 1.81113281 16.6015625 1.81757813 15.40625 1.82421875 C14.1996875 1.84097656 12.993125 1.85773437 11.75 1.875 C10.52796875 1.88402344 9.3059375 1.89304687 8.046875 1.90234375 C5.03105218 1.92590487 2.01562508 1.95880294 -1 2 C-0.67 1.34 -0.34 0.68 0 0 Z " fill="#F29829" transform="translate(211,25)"/>
<path d="M0 0 C0.66 0 1.32 0 2 0 C2 0.66 2 1.32 2 2 C3.32 2.33 4.64 2.66 6 3 C6 11.91 6 20.82 6 30 C5.67 30 5.34 30 5 30 C4.96132813 28.09927734 4.96132813 28.09927734 4.921875 26.16015625 C4.56102952 13.58971473 4.56102952 13.58971473 0 2 C0 1.34 0 0.68 0 0 Z " fill="#EEA851" transform="translate(262,98)"/>
<path d="M0 0 C0.33 0.66 0.66 1.32 1 2 C0.22265625 3.7265625 0.22265625 3.7265625 -0.9375 5.625 C-1.618125 6.73875 -2.29875 7.8525 -3 9 C-3.66 9 -4.32 9 -5 9 C-5.33 10.32 -5.66 11.64 -6 13 C-6.66 13 -7.32 13 -8 13 C-8.17942163 9.05272412 -8.09350689 6.4019487 -6 3 C-5.01 3 -4.02 3 -3 3 C-3 2.34 -3 1.68 -3 1 C-2.01 0.67 -1.02 0.34 0 0 Z " fill="#4ABBF4" transform="translate(29,45)"/>
<path d="M0 0 C4.97093824 0.41153737 9.44508386 0.79600832 14 3 C14 3.66 14 4.32 14 5 C16.64 5 19.28 5 22 5 C22 5.66 22 6.32 22 7 C13.9089317 7.26970228 13.9089317 7.26970228 10 5 C7.67451993 4.30643577 5.34119555 3.63850788 3 3 C2.01 2.67 1.02 2.34 0 2 C0 1.34 0 0.68 0 0 Z " fill="#BCEEFB" transform="translate(42,145)"/>
<path d="M0 0 C0 0.99 0 1.98 0 3 C-1.65 3.33 -3.3 3.66 -5 4 C-5 4.66 -5 5.32 -5 6 C-6.625 8.125 -6.625 8.125 -9 10 C-12.25 10.25 -12.25 10.25 -15 10 C-15 10.66 -15 11.32 -15 12 C-17.64 12 -20.28 12 -23 12 C-20.61606641 10.76035453 -18.24576098 9.69540347 -15.75 8.6875 C-12.22230382 7.20055709 -9.09373618 5.27513098 -5.89453125 3.18359375 C-3.98095377 1.98810102 -2.03211297 0.97775724 0 0 Z " fill="#5EC3F4" transform="translate(121,138)"/>
<path d="M0 0 C5.94 0.99 5.94 0.99 12 2 C12.33 2.99 12.66 3.98 13 5 C14.98 5 16.96 5 19 5 C19 5.66 19 6.32 19 7 C19.66 7.33 20.32 7.66 21 8 C12.86304398 7.72876813 7.06820635 4.91083499 0 1 C0 0.67 0 0.34 0 0 Z " fill="#FADEAF" transform="translate(199,91)"/>
<path d="M0 0 C1.32 0.33 2.64 0.66 4 1 C4 1.99 4 2.98 4 4 C4.66 4 5.32 4 6 4 C6.598125 5.093125 7.19625 6.18625 7.8125 7.3125 C9.29044697 9.91074129 10.69822933 12.04349493 13 14 C12.01 14.495 12.01 14.495 11 15 C10.34 14.67 9.68 14.34 9 14 C9 13.34 9 12.68 9 12 C8.01 11.67 7.02 11.34 6 11 C4.39453125 9.00390625 4.39453125 9.00390625 2.8125 6.5625 C2.28269531 5.75941406 1.75289062 4.95632812 1.20703125 4.12890625 C0 2 0 2 0 0 Z " fill="#FBE4BD" transform="translate(186,76)"/>
<path d="M0 0 C5.75 -0.125 5.75 -0.125 8 1 C8 1.99 8 2.98 8 4 C9.32 4.66 10.64 5.32 12 6 C8.70303895 7.09898702 7.59505097 6.87124444 4.3125 6.0625 C3.50425781 5.86785156 2.69601563 5.67320313 1.86328125 5.47265625 C1.24839844 5.31667969 0.63351563 5.16070312 0 5 C0 3.35 0 1.7 0 0 Z " fill="#F5941E" transform="translate(224,105)"/>
<path d="M0 0 C-0.639375 0.268125 -1.27875 0.53625 -1.9375 0.8125 C-4.33131686 1.88667752 -4.33131686 1.88667752 -5 5 C-6.97300116 6.05226728 -8.97676387 7.04788888 -11 8 C-12.35863401 8.96534522 -13.70343137 9.95277149 -15 11 C-14.67 9.35 -14.34 7.7 -14 6 C-13.01 6 -12.02 6 -11 6 C-11 5.01 -11 4.02 -11 3 C-10.34 3 -9.68 3 -9 3 C-8.67 2.01 -8.34 1.02 -8 0 C-5.04215769 -1.22393475 -3.00272755 -0.96516243 0 0 Z " fill="#1FAAF1" transform="translate(47,33)"/>
<path d="M0 0 C0.66 0.33 1.32 0.66 2 1 C0.68 4.3 -0.64 7.6 -2 11 C-2.66 11 -3.32 11 -4 11 C-4 17.27 -4 23.54 -4 30 C-4.33 30 -4.66 30 -5 30 C-5 22.08 -5 14.16 -5 6 C-4.01 6 -3.02 6 -2 6 C-1.34 4.02 -0.68 2.04 0 0 Z " fill="#EFB366" transform="translate(187,42)"/>
<path d="M0 0 C0.99 0.33 1.98 0.66 3 1 C2.525625 1.495 2.05125 1.99 1.5625 2.5 C-0.62167907 5.99468651 -0.65913911 8.90966936 -1 13 C-0.01 13 0.98 13 2 13 C3.01866229 14.65532623 4.01810813 16.32260138 5 18 C5.99 18.33 6.98 18.66 8 19 C8 19.66 8 20.32 8 21 C4.38638122 19.65779874 1.05093172 18.37688866 -2 16 C-2.55859375 12.96875 -2.55859375 12.96875 -2.4375 9.5 C-2.41558594 8.3553125 -2.39367187 7.210625 -2.37109375 6.03125 C-2 3 -2 3 0 0 Z " fill="#F9DEB2" transform="translate(208,51)"/>
<path d="M0 0 C0 0.99 0 1.98 0 3 C-3 5 -3 5 -6 5 C-6 5.66 -6 6.32 -6 7 C-11.71735105 9.45029331 -15.79029227 10.33266291 -22 10 C-18.42804627 8.0390869 -15.10203823 7.35161878 -11.12109375 6.66015625 C-8.67890999 5.90006591 -7.72442432 4.83438761 -6 3 C-5.34 3 -4.68 3 -4 3 C-4 2.34 -4 1.68 -4 1 C-2 0 -2 0 0 0 Z " fill="#FCE4C3" transform="translate(254,142)"/>
<path d="M0 0 C3.63 0 7.26 0 11 0 C8.60236815 2.39763185 7.66726502 2.34280586 4.375 2.625 C3.55773438 2.69976562 2.74046875 2.77453125 1.8984375 2.8515625 C1.27195312 2.90054688 0.64546875 2.94953125 0 3 C0 3.99 0 4.98 0 6 C-3 8 -3 8 -6 8 C-6 7.34 -6 6.68 -6 6 C-5.34 6 -4.68 6 -4 6 C-4 5.34 -4 4.68 -4 4 C-3.34 4 -2.68 4 -2 4 C-2 3.34 -2 2.68 -2 2 C-1.34 2 -0.68 2 0 2 C0 1.34 0 0.68 0 0 Z " fill="#93DDFA" transform="translate(58,50)"/>
<path d="M0 0 C0.66 0.99 1.32 1.98 2 3 C4.05925139 3.72382467 4.05925139 3.72382467 6 4 C6 4.99 6 5.98 6 7 C0.93001981 6.34580901 -3.41990777 4.1453591 -8 2 C-8 1.67 -8 1.34 -8 1 C-2.25 0 -2.25 0 0 0 Z " fill="#F19F38" transform="translate(234,73)"/>
<path d="M0 0 C0.33 0 0.66 0 1 0 C1.46153846 9.07692308 1.46153846 9.07692308 -2 13 C-5.1875 14.3125 -5.1875 14.3125 -8 15 C-8 14.01 -8 13.02 -8 12 C-7.01 12 -6.02 12 -5 12 C-5 11.34 -5 10.68 -5 10 C-4.01 10 -3.02 10 -2 10 C-1.34 6.7 -0.68 3.4 0 0 Z " fill="#ECA64A" transform="translate(240,116)"/>
<path d="M0 0 C5.2584002 0.67415387 10.02638346 2.24265549 15 4 C15 4.33 15 4.66 15 5 C11.7 5.33 8.4 5.66 5 6 C4.34 5.01 3.68 4.02 3 3 C2.01 2.67 1.02 2.34 0 2 C0 1.34 0 0.68 0 0 Z " fill="#43B6F1" transform="translate(48,149)"/>
<path d="M0 0 C1.32 0 2.64 0 4 0 C4 0.66 4 1.32 4 2 C4.99 2 5.98 2 7 2 C7.99 5.3 8.98 8.6 10 12 C9.34 12 8.68 12 8 12 C7 10.33333333 6 8.66666667 5 7 C4.113125 6.113125 3.22625 5.22625 2.3125 4.3125 C1.549375 3.549375 0.78625 2.78625 0 2 C0 1.34 0 0.68 0 0 Z " fill="#F0AA51" transform="translate(252,86)"/>
<path d="M0 0 C0.33 0 0.66 0 1 0 C1 1.98 1 3.96 1 6 C0.34 6 -0.32 6 -1 6 C-1 8.64 -1 11.28 -1 14 C-1.66 14 -2.32 14 -3 14 C-3 15.65 -3 17.3 -3 19 C-3.33 19 -3.66 19 -4 19 C-4.09765625 12.84765625 -4.09765625 12.84765625 -4 11 C-3.67 10.67 -3.34 10.34 -3 10 C-2.855625 8.88625 -2.71125 7.7725 -2.5625 6.625 C-2 3 -2 3 0 0 Z " fill="#AAE8FA" transform="translate(21,58)"/>
<path d="M0 0 C-2.83417169 2.83417169 -5.04300305 2.64462893 -9 3 C-11.64861428 2.91910636 -14.29601555 2.77288372 -16.9375 2.5625 C-17.96327148 2.48418945 -17.96327148 2.48418945 -19.00976562 2.40429688 C-20.67371169 2.27630102 -22.3369473 2.13912281 -24 2 C-24 1.67 -24 1.34 -24 1 C-21.125109 0.8312433 -18.25011104 0.66492885 -15.375 0.5 C-14.56675781 0.45230469 -13.75851563 0.40460938 -12.92578125 0.35546875 C-8.61012369 0.10986222 -4.32496331 -0.05598658 0 0 Z " fill="#E8FDFE" transform="translate(91,132)"/>
<path d="M0 0 C5.36095277 1.58921525 10.70843973 3.18972938 16 5 C16 5.66 16 6.32 16 7 C14.56138706 6.91253716 13.12402492 6.80434652 11.6875 6.6875 C10.88699219 6.62949219 10.08648437 6.57148437 9.26171875 6.51171875 C6.60466191 5.9105539 5.78382178 4.99124292 4 3 C1.89667109 2.28552357 1.89667109 2.28552357 0 2 C0 1.34 0 0.68 0 0 Z " fill="#EEA343" transform="translate(200,93)"/>
<path d="M0 0 C0.99 0.33 1.98 0.66 3 1 C2.3125 2.9375 2.3125 2.9375 1 5 C-1.625 5.75 -1.625 5.75 -4 6 C-4 6.66 -4 7.32 -4 8 C-4.66 7.67 -5.32 7.34 -6 7 C-5.67 5.35 -5.34 3.7 -5 2 C-3.35 2 -1.7 2 0 2 C0 1.34 0 0.68 0 0 Z " fill="#16A9F3" transform="translate(30,40)"/>
<path d="M0 0 C0.44730469 0.39832031 0.89460938 0.79664063 1.35546875 1.20703125 C4.13848965 3.64588325 6.74827906 5.85003859 9.9375 7.75 C10.9584375 8.36875 10.9584375 8.36875 12 9 C12 9.66 12 10.32 12 11 C12.99 11.33 13.98 11.66 15 12 C13.68 12 12.36 12 11 12 C11 11.34 11 10.68 11 10 C9.68 10 8.36 10 7 10 C6.67 9.34 6.34 8.68 6 8 C3.97536745 7.34786708 3.97536745 7.34786708 2 7 C1.34 4.69 0.68 2.38 0 0 Z " fill="#40B7EF" transform="translate(30,136)"/>
<path d="M0 0 C2.25245881 2.68841859 3.88213958 4.64641875 5 8 C5.66 8 6.32 8 7 8 C7.33 9.32 7.66 10.64 8 12 C5.6875 11.9375 5.6875 11.9375 3 11 C0.83114896 7.03623776 0 4.53922384 0 0 Z " fill="#A7E5F9" transform="translate(43,112)"/>
<path d="M0 0 C5.76044212 0.60636233 10.72014369 2.75658279 16 5 C16 5.33 16 5.66 16 6 C13.36 6 10.72 6 8 6 C8 5.01 8 4.02 8 3 C5.36 2.67 2.72 2.34 0 2 C0 1.34 0 0.68 0 0 Z " fill="#FADAA9" transform="translate(216,72)"/>
<path d="M0 0 C0.66 0.33 1.32 0.66 2 1 C1.360625 2.0725 0.72125 3.145 0.0625 4.25 C-1.40601273 6.80822182 -2.52854542 9.05340886 -3 12 C-3.66 12 -4.32 12 -5 12 C-5.33 12.99 -5.66 13.98 -6 15 C-5 7.57142857 -5 7.57142857 -4 4 C-3.34 4 -2.68 4 -2 4 C-1.34 2.68 -0.68 1.36 0 0 Z " fill="#D5F7FC" transform="translate(46,60)"/>
<path d="M0 0 C0.99 0 1.98 0 3 0 C3 0.66 3 1.32 3 2 C3.66 2 4.32 2 5 2 C5 2.66 5 3.32 5 4 C5.99 4 6.98 4 8 4 C8 5.32 8 6.64 8 8 C5.13275314 7.42655063 4.1385485 7.1385485 2 5 C2 4.01 2 3.02 2 2 C1.34 2 0.68 2 0 2 C0 1.34 0 0.68 0 0 Z " fill="#37B2EE" transform="translate(48,118)"/>
<path d="M0 0 C-0.33 0.99 -0.66 1.98 -1 3 C-7.27 3 -13.54 3 -20 3 C-16.15135118 1.07567559 -14.17346771 0.65670907 -10 0.375 C-8.96875 0.30023437 -7.9375 0.22546875 -6.875 0.1484375 C-4.58584831 0.0302476 -2.29220075 0 0 0 Z " fill="#C8F2FD" transform="translate(72,29)"/>
<path d="M0 0 C0.66 0 1.32 0 2 0 C2.67031719 1.9570868 3.33614683 3.91571113 4 5.875 C4.556875 7.51082031 4.556875 7.51082031 5.125 9.1796875 C6 12 6 12 6 14 C5.34 14 4.68 14 4 14 C4 12.68 4 11.36 4 10 C3.34 10 2.68 10 2 10 C2 8.02 2 6.04 2 4 C1.34 4 0.68 4 0 4 C0 2.68 0 1.36 0 0 Z " fill="#53BDEF" transform="translate(16,112)"/>
<path d="M0 0 C2.31 0 4.62 0 7 0 C7 0.66 7 1.32 7 2 C8.32 2 9.64 2 11 2 C11 2.66 11 3.32 11 4 C11.66 4.33 12.32 4.66 13 5 C9.62294375 4.46274105 6.303314 3.88935377 3 3 C3 2.34 3 1.68 3 1 C2.01 0.67 1.02 0.34 0 0 Z " fill="#F1A444" transform="translate(213,69)"/>
<path d="M0 0 C0.33 0.66 0.66 1.32 1 2 C0.01 2.66 -0.98 3.32 -2 4 C-3.44422226 6.40485798 -3.44422226 6.40485798 -4.6875 9.125 C-5.12449219 10.03507812 -5.56148437 10.94515625 -6.01171875 11.8828125 C-6.33785156 12.58148438 -6.66398437 13.28015625 -7 14 C-7.91662607 11.50722424 -8.17798858 10.41374538 -7.109375 7.9296875 C-6.66078125 7.25164062 -6.2121875 6.57359375 -5.75 5.875 C-5.09257813 4.85019531 -5.09257813 4.85019531 -4.421875 3.8046875 C-3 2 -3 2 0 0 Z " fill="#78CDF3" transform="translate(51,58)"/>
<path d="M0 0 C4.62 1.65 9.24 3.3 14 5 C14 5.33 14 5.66 14 6 C9.02906176 5.58846263 4.55491614 5.20399168 0 3 C0 2.01 0 1.02 0 0 Z " fill="#ECA647" transform="translate(181,144)"/>
<path d="M0 0 C-0.3125 1.875 -0.3125 1.875 -1 4 C-4 6 -4 6 -6.1875 5.625 C-6.785625 5.41875 -7.38375 5.2125 -8 5 C-8 4.34 -8 3.68 -8 3 C-2.25 0 -2.25 0 0 0 Z " fill="#FCE9CC" transform="translate(240,128)"/>
<path d="M0 0 C0.33 0 0.66 0 1 0 C1 1.98 1 3.96 1 6 C1.66 6 2.32 6 3 6 C2.67 7.65 2.34 9.3 2 11 C1.01 11.33 0.02 11.66 -1 12 C-0.67 8.04 -0.34 4.08 0 0 Z " fill="#15A5F4" transform="translate(17,116)"/>
<path d="M0 0 C5.19822672 1.36144033 8.09543873 3.46730171 12 7 C11.01 7.495 11.01 7.495 10 8 C7.96855359 7.06553465 5.96466413 6.06775224 4 5 C4 4.34 4 3.68 4 3 C2.68 2.34 1.36 1.68 0 1 C0 0.67 0 0.34 0 0 Z " fill="#FCF2DC" transform="translate(194,85)"/>
<path d="M0 0 C0.33 1.32 0.66 2.64 1 4 C-0.75 5.5625 -0.75 5.5625 -3 7 C-5.25 6.6875 -5.25 6.6875 -7 6 C-5.68 5.67 -4.36 5.34 -3 5 C-2.814375 4.0409375 -2.814375 4.0409375 -2.625 3.0625 C-2.41875 2.381875 -2.2125 1.70125 -2 1 C-1.34 0.67 -0.68 0.34 0 0 Z " fill="#F29E34" transform="translate(259,141)"/>
<path d="M0 0 C0.66 0 1.32 0 2 0 C2 0.66 2 1.32 2 2 C3.32 2.33 4.64 2.66 6 3 C6 5.31 6 7.62 6 10 C5.67 8.68 5.34 7.36 5 6 C4.01 6 3.02 6 2 6 C1.34 4.02 0.68 2.04 0 0 Z " fill="#F3A244" transform="translate(262,98)"/>
<path d="M0 0 C2.97 0 5.94 0 9 0 C9 0.66 9 1.32 9 2 C10.32 2 11.64 2 13 2 C13 2.66 13 3.32 13 4 C10.36 3.67 7.72 3.34 5 3 C5 2.34 5 1.68 5 1 C3.35 1 1.7 1 0 1 C0 0.67 0 0.34 0 0 Z " fill="#FBDEAD" transform="translate(235,48)"/>
<path d="M0 0 C0 0.66 0 1.32 0 2 C-3.4019487 4.09350689 -6.05272412 4.17942163 -10 4 C-10 3.34 -10 2.68 -10 2 C-3.375 0 -3.375 0 0 0 Z " fill="#EF9A2D" transform="translate(250,150)"/>
<path d="M0 0 C3.63 0.66 7.26 1.32 11 2 C11 2.66 11 3.32 11 4 C3.57142857 4.28571429 3.57142857 4.28571429 0 2 C0 1.34 0 0.68 0 0 Z " fill="#F0A444" transform="translate(197,150)"/>
<path d="M0 0 C0.95582656 2.55654815 1.17802782 3.60341769 0.0390625 6.140625 C-0.42757813 6.83671875 -0.89421875 7.5328125 -1.375 8.25 C-1.83648437 8.95640625 -2.29796875 9.6628125 -2.7734375 10.390625 C-3.17820312 10.92171875 -3.58296875 11.4528125 -4 12 C-4.33 12 -4.66 12 -5 12 C-5.25 9.75 -5.25 9.75 -5 7 C-3.0625 4.875 -3.0625 4.875 -1 3 C-0.67 2.01 -0.34 1.02 0 0 Z " fill="#FCEED4" transform="translate(263,128)"/>
<path d="M0 0 C0.90492187 0.10828125 0.90492187 0.10828125 1.828125 0.21875 C3.02695313 0.35796875 3.02695313 0.35796875 4.25 0.5 C5.03890625 0.5928125 5.8278125 0.685625 6.640625 0.78125 C9.26890397 1.06154619 9.26890397 1.06154619 13 1 C13 1.99 13 2.98 13 4 C3.40546697 3.40546697 3.40546697 3.40546697 0 0 Z " fill="#3CB7F1" transform="translate(103,31)"/>
<path d="M0 0 C2.475 0.495 2.475 0.495 5 1 C5.66 3.64 6.32 6.28 7 9 C6.01 8.34 5.02 7.68 4 7 C4 6.01 4 5.02 4 4 C3.01 4 2.02 4 1 4 C0.67 2.68 0.34 1.36 0 0 Z " fill="#C8F2FC" transform="translate(22,124)"/>
<path d="M0 0 C1.32 0 2.64 0 4 0 C4 0.66 4 1.32 4 2 C5.32 2.33 6.64 2.66 8 3 C8 4.65 8 6.3 8 8 C7.67 7.34 7.34 6.68 7 6 C6.34 6 5.68 6 5 6 C3.2856382 4.04072937 1.61594832 2.04119788 0 0 Z " fill="#FDECCB" transform="translate(234,106)"/>
<path d="M0 0 C0.33 0.66 0.66 1.32 1 2 C0.34 2 -0.32 2 -1 2 C-1 3.65 -1 5.3 -1 7 C-3.97 6.505 -3.97 6.505 -7 6 C-6.34 5.01 -5.68 4.02 -5 3 C-4.34 3 -3.68 3 -3 3 C-3 2.34 -3 1.68 -3 1 C-2.01 0.67 -1.02 0.34 0 0 Z " fill="#24A8F2" transform="translate(55,57)"/>
<path d="M0 0 C0.33 0 0.66 0 1 0 C1 1.65 1 3.3 1 5 C0.34 5 -0.32 5 -1 5 C-1 6.65 -1 8.3 -1 10 C-1.99 9.34 -2.98 8.68 -4 8 C-4 7.01 -4 6.02 -4 5 C-3.34 4.67 -2.68 4.34 -2 4 C-0.86649466 1.98330173 -0.86649466 1.98330173 0 0 Z " fill="#F59A30" transform="translate(214,59)"/>
<path d="M0 0 C2.475 0.495 2.475 0.495 5 1 C5 1.99 5 2.98 5 4 C6.65 4 8.3 4 10 4 C10 4.33 10 4.66 10 5 C3.51707705 5.3669579 3.51707705 5.3669579 1.0625 3.625 C0 2 0 2 0 0 Z " fill="#EDA445" transform="translate(251,54)"/>
<path d="M0 0 C0 0.66 0 1.32 0 2 C-1.36125 2.6496875 -1.36125 2.6496875 -2.75 3.3125 C-5.43218449 4.70517271 -7.66139605 6.11112757 -10 8 C-9.9375 5.6875 -9.9375 5.6875 -9 3 C-3.31034483 0 -3.31034483 0 0 0 Z " fill="#68C6F5" transform="translate(42,36)"/>
<path d="M0 0 C0 0.99 0 1.98 0 3 C-5.75 6 -5.75 6 -8 6 C-8 5.34 -8 4.68 -8 4 C-6.68 3.67 -5.36 3.34 -4 3 C-4 2.34 -4 1.68 -4 1 C-2 0 -2 0 0 0 Z " fill="#FCF1D3" transform="translate(254,142)"/>
<path d="M0 0 C1.051875 0.433125 1.051875 0.433125 2.125 0.875 C5.05452503 2.02133588 8.00921653 3.02625654 11 4 C11 4.33 11 4.66 11 5 C9.54119891 4.85892253 8.08296449 4.71197585 6.625 4.5625 C5.40683594 4.44068359 5.40683594 4.44068359 4.1640625 4.31640625 C2 4 2 4 0 3 C0 2.01 0 1.02 0 0 Z " fill="#2EAFF2" transform="translate(104,54)"/>
<path d="M0 0 C0.99 0.33 1.98 0.66 3 1 C2.34 1 1.68 1 1 1 C1 1.66 1 2.32 1 3 C0.34 3 -0.32 3 -1 3 C-1.33 3.99 -1.66 4.98 -2 6 C-2.99 6.33 -3.98 6.66 -5 7 C-4.67 5.35 -4.34 3.7 -4 2 C-2.68 2 -1.36 2 0 2 C0 1.34 0 0.68 0 0 Z " fill="#D9F9FC" transform="translate(53,53)"/>
<path d="M0 0 C3.40320742 1.01176437 4.75725331 1.64843582 6.8125 4.625 C7.204375 5.40875 7.59625 6.1925 8 7 C5.525 6.01 5.525 6.01 3 5 C3 4.34 3 3.68 3 3 C2.01 2.67 1.02 2.34 0 2 C0 1.34 0 0.68 0 0 Z " fill="#FBE1B9" transform="translate(250,87)"/>
<path d="M0 0 C0.99 0 1.98 0 3 0 C3 2.64 3 5.28 3 8 C2.01 8 1.02 8 0 8 C0 5.36 0 2.72 0 0 Z " fill="#EFAD59" transform="translate(207,56)"/>
<path d="M0 0 C4.8 3.44615385 4.8 3.44615385 5.8125 6.25 C5.874375 6.8275 5.93625 7.405 6 8 C5.01 7.67 4.02 7.34 3 7 C3 6.01 3 5.02 3 4 C2.34 4 1.68 4 1 4 C0.67 2.68 0.34 1.36 0 0 Z M-1 4 C1 5 1 5 1 5 Z " fill="#1EA8EA" transform="translate(25,132)"/>
<path d="M0 0 C0.66 0 1.32 0 2 0 C3.1577506 3.47325181 3.06866652 6.36067448 3 10 C-0.00617269 6.99382731 0.40414684 4.17618402 0 0 Z " fill="#37AFF0" transform="translate(42,104)"/>
<path d="M0 0 C2.02045442 0.60183749 4.02111039 1.27306096 6 2 C6.33 2.66 6.66 3.32 7 4 C4.69 4 2.38 4 0 4 C0 2.68 0 1.36 0 0 Z " fill="#F29A2C" transform="translate(216,100)"/>
<path d="M0 0 C5.41538462 -0.36923077 5.41538462 -0.36923077 8.375 1.5 C8.91125 1.995 9.4475 2.49 10 3 C8.5199159 2.88637738 7.04089926 2.75877092 5.5625 2.625 C4.73878906 2.55539063 3.91507813 2.48578125 3.06640625 2.4140625 C2.38449219 2.27742187 1.70257813 2.14078125 1 2 C0.67 1.34 0.34 0.68 0 0 Z " fill="#F9D6A6" transform="translate(190,147)"/>
<path d="M0 0 C0.66 0 1.32 0 2 0 C2.66 1.98 3.32 3.96 4 6 C3.01 5.67 2.02 5.34 1 5 C0.67 5.66 0.34 6.32 0 7 C0 4.69 0 2.38 0 0 Z " fill="#2DADEE" transform="translate(21,126)"/>
<path d="M0 0 C0.763125 0.0825 1.52625 0.165 2.3125 0.25 C2.3125 0.91 2.3125 1.57 2.3125 2.25 C-0.3275 2.91 -2.9675 3.57 -5.6875 4.25 C-3.34903846 0.31153846 -3.34903846 0.31153846 0 0 Z " fill="#E3FBFD" transform="translate(53.6875,31.75)"/>
<path d="M0 0 C2.88437779 1.29299694 4.87219421 2.65941363 7 5 C4.69 4.67 2.38 4.34 0 4 C0 2.68 0 1.36 0 0 Z " fill="#3EB7F0" transform="translate(96,26)"/>
</svg>
